<svg xmlns="http://www.w3.org/2000/svg" width="542.24746" height="464.37075" viewBox="0 0 542.24746 464.37075" xmlns:xlink="http://www.w3.org/1999/xlink"><path d="M367.83241,443.31901l.07593,.23086c.14887,.453,.30574,.906,.47061,1.35196,12.20857,32.95142,4.99768,72.81282-22.6551,83.07323-15.63679,5.79831-32.46744,2.58336-49.00363-7.35566-9.67354-5.80611-19.24209-13.60933-30.29476-18.60678-2.08167-.94414-4.33575-1.76412-6.63753-2.37115-19.84416-5.24137-38.37506,7.60033-57.50607,12.14167-8.03241,1.91132-16.30553,2.55252-24.03608,.14188-18.42988-5.74139-30.6868-24.6635-36.42011-43.11397-5.7334-18.44988-6.57192-37.9952-7.39301-56.86394-1.14485-26.32405-2.2897-52.73945-1.04243-79.13422,.46781-9.87906,1.32086-19.7323,2.91571-29.47422,3.97856-24.36389,11.33669-48.64566,25.73373-70.78416,14.40301-22.14639,26.17153-42.60843,53.9418-52.40556,8.15649-2.89044,17.00164-4.3862,25.70891-3.09815,8.70435,1.28057,16.92837,5.31454,22.59411,11.44888,13.34375,14.4356,34.09939,14.61663,53.5389,14.53853,19.43951-.0781,40.31436,3.69384,51.02113,17.47131,5.06704,6.5183,7.62008,14.13364,10.03997,21.68893,2.41989,7.55444,4.85162,15.05083,9.70929,22.34619,2.65773,3.98784,6.16482,7.76017,9.90521,11.4121,32.00798,31.28481,56.09822,70.93949,44.98685,107.05763-.74293,2.41344-1.62387,4.78277-2.62337,7.11804-.57664,1.34611-1.12357,2.63618-1.63957,3.87516-.29774,.71833-.58755,1.43003-.87146,2.13659-1.12439,2.79546-2.13659,5.43287-2.99502,7.93018-.63123,1.82979-1.19984,3.56223-1.67216,5.22414,.11579,.42602,.229,.85359,.3448,1.27975,.5045,1.87419,.97511,3.75111,1.41721,5.62685,1.75068,7.44228,2.85861,14.99054,3.32413,22.58672,.09501,1.55855,.14755,3.11818,.14755,4.68777,0,2.0404-.09501,4.08279-.284,6.12891l.00186,.02183c-.58372,6.30664-1.94294,12.58579-4.05807,18.71466-1.35177,3.91079-3.06258,7.71902-5.1123,11.38844l-.19638,.35037v.00186c-1.72887,3.0446-3.71758,5.95306-5.93436,8.71097,1.09833,.64945,2.16693,1.32928,3.2059,2.0404h.00372Z" fill="#f2f2f2"/><path d="M280.07425,295.91864c-2.26221,9.8833-2.81811,19.52311,0,28.57771v.00372c2.81811,9.0546,8.39038,17.09088,15.25842,24.38596,6.83243,7.29879,14.86725,14.29218,21.12952,22.57175,6.29388,8.24359,10.63696,18.4015,8.2968,27.75421-1.93225,7.72574-8.0069,14.4072-15.62945,19.09683-7.62253,4.69334-16.90079,7.40979-26.39401,8.59631-19.01903,2.37604-39.1236-.51466-57.63556-6.9154-.3038-.1042-.60761-.21586-.91141-.32369" fill="#f2f2f2"/><path d="M337.92212,442.23868c-1.72887,3.0446-3.71758,5.95306-5.93436,8.71097-5.56053,6.91541-12.36807,12.96251-20.14166,17.65119-.51466,.31183-1.03674,.61543-1.55883,.911,9.76379-2.84924,19.52664-5.70264,29.29321-8.55231,4.88747-1.43075,9.91017-2.93167,13.70346-5.78598,3.8014-2.86209,6.35889-7.41724,5.28667-11.47271-.6093-2.30532-2.19342-4.34297-3.8384-6.3179-1.65199-1.96899-3.37659-3.94031-4.5992-6.09561-1.29913-2.28349-2.08353-5.09546-1.09833-7.31904,.44184-.99743,1.20728-1.90024,1.45258-2.92431,.3262-1.37279-.41162-3.16815-1.8615-3.09196-.63866,.0334-1.18155,.3904-1.72887,.70593-2.68961,1.54783-5.38086,3.09939-8.06995,4.64909,2.51637-1.1579,1.29913-5.00974-.48722-6.86397-1.78635-1.85408-4.28733-2.58336-6.70183-3.26873l-12.44605-3.54302,10.00573,2.83826c1.85966,.52956,3.83095,1.12171,4.8103,2.55249,.97977,1.42702,.48722,3.51836-1.21098,4.03673-1.96106,.59995-4.09686-.7337-5.0834-2.2548-3.0074-4.65898,.18659-10.73474-1.13774-16.02636-.85657-3.40276-3.36959-6.26337-4.71703-9.51337-.19825-.4835-.37044-.978-.51466-1.47475,1.20913,.81095,2.41827,1.62375,3.6274,2.4347l-.00093,.00557c.32061,2.0777,.64494,4.15358,.9693,6.23128-2.07239-9.99827,.89134-20.78274-2.32062-30.41633-3.37251-10.08808-12.79131-18.31578-23.81085-22.50299-11.02233-4.18721-23.29991-4.14136-35.1236-2.84924-11.82461,1.29213-23.45412,3.78644-35.28245,4.62265-11.54419,.81373-23.83271-.30811-33.82806-5.79154-9.99628-5.48218-17.59184-16.50029-15.88051-27.22743,.73452-4.60483,2.92988-9.00782,6.25668-12.87069,1.6474-1.91496,3.56074-3.70801,4.4715-5.90211,.9089-2.1941,.41533-4.92265-1.71214-6.0063-2.12741-1.08331-4.99898-.12417-6.31203,1.83705-1.31397,1.96434-1.36961,4.48349-1.14393,6.83243,.22568,2.35079,.74851,4.72069,.30667,7.04613-.50982,2.6808-2.30625,5.10289-3.17759,7.71062-1.67418,4.99427,.01856,10.7068,3.42243,14.96937-.86975-.07968-1.24112-1.29585-1.11321-2.12556,.12884-.82878,.62838-1.59999,.7572-2.41065,.12791-.81094-.33924-1.79119-1.20913-1.67974-.50702,.06556-.92261,.41346-1.29541,.76938-1.85039,1.76094-3.70077,3.52374-5.55116,5.28467,1.93132-5.10103,3.86356-10.20113,5.79581-15.3003,.60111-1.58587,1.18248-3.31611,.35415-4.7802-.64122-1.13308-2.07983-1.72887-3.48073-1.89469-5.5696-.66381-11.14646,.31275-16.62817,.96326,5.50296-.75408,10.79593-3.7976,15.03493-7.26575,4.23714-3.46868,7.50844-7.7069,10.66127-12.0106,3.15731-4.2984,6.33524-8.63686,10.71599-12.04805,4.38167-3.41026,10.18579-5.67296,15.65968-4.11021,2.61135,.74851,5.04556,2.19435,7.82086,3.086,2.77715,.89506,5.98528,1.25153,8.33919-.10283,1.06688-.6158,1.99221-1.55232,3.15731-2.03111,1.15765-.47817,2.60115-.52491,3.50022,.27443,1.46029,1.30348,1.2304,3.30013,1.17106,4.93213-.11208,2.93353-.22323,5.86707-.33717,8.7997-.58161,1.47012-1.77262,2.88586-1.3057,4.3709,.9516,3.01135,2.17301,5.92827,3.65373,8.73599" fill="#f2f2f2"/><polygon points="243.31809 453.13789 254.68054 453.13647 259.89276 411.14174 243.31512 411.14331 243.31809 453.13789" fill="#ffb6b6"/><path d="M240.99667,449.64233l21.22221-.00086h0c5.66412,.00103,10.25554,4.59316,10.25568,10.25732l.00031,3.33618-31.47846,.00122v-13.59386h.00026Z" fill="#2f2e41"/><polygon points="305.09218 453.13789 316.45462 453.13647 321.66685 411.14174 305.08921 411.14331 305.09218 453.13789" fill="#ffb6b6"/><path d="M302.77076,449.64233l21.22221-.00086h0c5.66412,.00103,10.25554,4.59316,10.25568,10.25732l.00031,3.33618-31.47846,.00122v-13.59386h.00026Z" fill="#2f2e41"/><path d="M251.3262,224.68474l-13.53811,27.07622-2.09524,151.97232h21.6096l19.42903-105.75717,7.12381,37.93866,25.46287,67.81852h19.51429l-14.59429-92.22853s.89524-74.04232-17.41904-78.66667c0,0-26.3581-15.57147-45.69382-8.15332Z" fill="#2f2e41"/><path d="M251.3262,224.68474l-13.53811,27.07622-2.09524,151.97232h21.6096l19.42903-105.75717,7.12381,37.93866,25.46287,67.81852h19.51429l-14.59429-92.22853s.89524-74.04232-17.41904-78.66667c0,0-26.3581-15.57147-45.69382-8.15332Z" opacity=".1"/><polygon points="257.70725 120.89857 245.3262 161.60951 241.51429 184.07236 248.63811 258.93426 293.64763 257.13902 298.17372 191.35189 294.54287 148.40474 257.70725 120.89857" fill="#6c63ff"/><path d="M247.70046,159.09284h-.00006s-8.38094,15.08569-8.38094,20.94284v62.83522l-7.63809,8.38095,13.44286,12.69904,30.4762-55.8857-27.89997-48.97235Z" fill="#6c63ff"/><path d="M294.54287,150.35951h.00006s8.38094,15.08569,8.38094,20.94284v62.83522l7.63809,8.38095-13.44286,12.69904-30.4762-55.8857,27.89997-48.97235Z" fill="#6c63ff"/><path d="M306.49526,160.05527l-3.0286-12.89524-8.94286,3.125s-15.29523-17.56666-35.55236-1.78334c-20.25714,15.78332-21.65001-1.92001-21.65001-1.92001l-9.62095,1.07095-6.52381,11.20952,5.77619,75.93809c-4.5,20.05713,3.32741,26.33186,12.10477,27.81429,8.77737,1.48242,23.42383,.40475,23.42383,.40475l.49524-28.58572,5.77619,27.76192s14.87113-.56904,19.63809-.56904,10.59524-5.77619,10.59524-5.77619l8.38094-95.73808Z" fill="#2f2e41"/><circle cx="278.6022" cy="93.37903" r="24.44762" fill="#ffb6b6"/><path d="M304.269,90.81498c-4.2984-7.73848-12.04805-13.34476-20.81055-15.08384-8.7625-1.73535-18.09436,.28536-25.6084,5.01067-7.33875-3.08044-18.8205-3.44598-25.00425,1.15208-1.95639,1.44929-3.53423,3.62091-3.63335,5.99819-.09024,2.16989,1.03303,4.20629,1.93692,6.23077,2.9068,6.51336-.86047,14.57968-.58068,21.97266,.3038,8.0481,6.267,15.03122,10.25827,22.16185,3.25779,5.80733,5.2038,12.16672,8.0481,18.21969,3.08044,6.56288,7.16547,12.54709,8.65674,19.47675,.73109,3.39123,.84612,7.13349,3.08044,9.80005,1.71959,2.05301,4.46414,3.13742,7.08113,3.97044,7.0648,2.2607,14.48201,3.91348,21.9093,4.64909-5.28603-9.05899-7.25351-19.95865-5.57007-30.12892,.52211-3.14673,1.35083-6.24559,1.44088-9.4259,.14337-5.08219-1.51141-10.09069-2.95481-15.01267-.10004-.33645-.18658-.6729-.27312-1.00935-.87157-3.37361-1.6159-7.04358,.08828-10.25641,1.3212-2.49507,3.76333-4.23922,5.38086-6.5499,2.97327-4.2459,3.40465-9.8335,2.71147-14.94618-.69318-5.11176-2.21001-10.09069-2.76288-15.17775Z" fill="#2f2e41"/><path d="M542.24744,463.87076H0v-2h542.24744v2Z" fill="#cacaca"/><path d="M351.58328,75.44862h-102.06133c-8.75195,0-15.86816-7.11621-15.86816-15.86621v-43.72485c0-8.75049,7.11621-15.86426,15.86816-15.86426h102.06133c8.75,0,15.86768,7.11377,15.86768,15.86426v43.72485c0,8.75-7.11768,15.86621-15.86768,15.86621Z" fill="#fff"/><path d="M351.58328,75.94862h-102.06133c-9.02246,0-16.36816-7.34424-16.36816-16.36621v-43.72485c0-9.02051,7.3457-16.36426,16.36816-16.36426h102.06133c9.02246,0,16.36768,7.34375,16.36768,16.36426v43.72485c0,9.02197-7.34521,16.36621-16.36768,16.36621Zm-102.06133-74.95532c-8.19678,0-14.86816,6.67041-14.86816,14.86426v43.72485c0,8.19531,6.67139,14.86621,14.86816,14.86621h102.06133c8.19629,0,14.86768-6.6709,14.86768-14.86621v-43.72485c0-8.19385-6.67139-14.86426-14.86768-14.86426h-102.06133Z" fill="#cacaca"/><path d="M276.66243,42.2915c-.91553-1.12177-2.02142-2.10761-3.27802-2.91136,1.32318-.62231,2.5371-1.55458,3.534-2.81463,.99693-1.2605,1.69339-2.81404,2.0372-4.61208l-6.27713,.05056,3.13855-3.13855h-8.78277l3.13855,3.13855h-1.57055l-6.27677-.05056c.34479,1.8005,1.04303,3.35532,2.0413,4.619,1.00137,1.26072,2.22006,2.19092,3.54913,2.81006-1.25826,.80312-2.36446,1.79041-3.27802,2.91399-1.41428,1.73584-2.35383,3.69873-2.79498,5.83683h8.784c-.33621-1.16632-.91522-1.95337-1.78284-2.31759-.3558-.14978-.83914-.18719-1.31647-.06514-.47745,.12204-.83118,.3558-1.01997,.64055-.09418,.14262-.12187,.29869-.10306,.45486,.0188,.15626,.08354,.30956,.19174,.45233,.56628,.74862,1.8501,.90496,2.79498,.54775,.80118-.30438,1.39309-.98215,1.71646-1.96355,.10995-.33387,.18851-.71368,.23687-1.12981h1.5705c.04816,.41716,.12793,.79584,.23824,1.12891,.3237,.97937,.91785,1.65625,1.72157,1.96045,.94476,.35826,2.22961,.20209,2.79498-.54578,.21637-.28557,.27979-.61637,.19174-.90729-.18758-.62116-1.00684-1.05032-2.33453-.57648-.87067,.36467-1.44839,1.15141-1.78284,2.31873h8.78277c-.4408-2.13947-1.37933-4.10218-2.79278-5.83958Z" fill="#6c63ff"/><circle cx="300.47806" cy="40.7186" r="10.60189" fill="#6c63ff"/><path d="M323.27911,31.6664v18.10442h-18.10443v-18.10442h18.10443Zm-2.25685,15.84745v-13.59042h-13.59073v13.59042h13.59073Z" fill="#6c63ff"/><rect x="347.61247" y="30.44283" width="19.10796" height="19.10796" fill="#6c63ff"/><path d="M168.43772,180.39539c-1.95258,0-3.5392,1.58662-3.5392,3.5392s1.58662,3.5392,3.5392,3.5392h120.68273c1.95258,0,3.5392-1.58662,3.5392-3.5392s-1.58662-3.5392-3.5392-3.5392h-120.68273Z" fill="#6c63ff"/></svg> 